<?xml version="1.0" encoding="UTF-8" standalone="no"?>
<svg
   id="regular"
   enable-background="new 0 0 24 24"
   height="512"
   viewBox="0 0 24 24"
   width="512"
   version="1.1"
   sodipodi:docname="trello-1.svg"
   inkscape:version="1.1 (1:1.1+202105261517+ce6663b3b7)"
   xmlns:inkscape="http://www.inkscape.org/namespaces/inkscape"
   xmlns:sodipodi="http://sodipodi.sourceforge.net/DTD/sodipodi-0.dtd"
   xmlns="http://www.w3.org/2000/svg"
   xmlns:svg="http://www.w3.org/2000/svg">
  <defs
     id="defs11" />
  <sodipodi:namedview
     id="namedview9"
     pagecolor="#ffffff"
     bordercolor="#666666"
     borderopacity="1.0"
     inkscape:pageshadow="2"
     inkscape:pageopacity="0.0"
     inkscape:pagecheckerboard="0"
     showgrid="false"
     showguides="true"
     inkscape:zoom="0.4609375"
     inkscape:cx="520.67797"
     inkscape:cy="254.91525"
     inkscape:window-width="1536"
     inkscape:window-height="967"
     inkscape:window-x="0"
     inkscape:window-y="0"
     inkscape:window-maximized="1"
     inkscape:current-layer="regular" />
  <path
     d="m5.025 19.894h4.162c1.158 0 2.1-.942 2.1-2.1v-12.769c0-1.158-.941-2.1-2.1-2.1h-4.162c-1.158 0-2.101.942-2.101 2.1v12.769c.001 1.158.943 2.1 2.101 2.1zm-.6-14.869c0-.331.27-.6.601-.6h4.162c.331 0 .6.269.6.6v12.769c0 .331-.269.6-.6.6h-4.163c-.331 0-.601-.269-.601-.6v-12.769z"
     id="path2"
     style="stroke:none;fill:#ffffff" />
  <path
     d="m3.562 24h16.875c1.965 0 3.563-1.598 3.563-3.562v-16.876c0-1.964-1.598-3.562-3.563-3.562h-16.875c-1.964 0-3.562 1.598-3.562 3.562v16.875c0 1.965 1.598 3.563 3.562 3.563zm-2.062-20.438c0-1.137.925-2.062 2.062-2.062h16.875c1.138 0 2.063.925 2.063 2.062v16.875c0 1.137-.925 2.062-2.063 2.062h-16.875c-1.138 0-2.062-.925-2.062-2.062z"
     id="path4"
     style="stroke:none;fill:#ffffff" />
  <path
     d="m14.813 14.302h4.162c1.158 0 2.1-.942 2.1-2.1 0-.156 0-7.429 0-7.177 0-1.158-.942-2.1-2.101-2.1h-4.162c-1.158 0-2.1.942-2.1 2.1 0 .156 0 7.429 0 7.177.001 1.158.943 2.1 2.101 2.1zm-.6-9.277c0-.331.269-.6.6-.6h4.162c.331 0 .601.269.601.6 0 .156 0 7.429 0 7.177 0 .331-.269.6-.6.6h-4.162c-.331 0-.601-.269-.601-.6 0-.157 0-7.429 0-7.177z"
     id="path6"
     style="stroke:none;fill:#ffffff" />
</svg>
